<svg id="Calque_1" data-name="Calque 1" xmlns="http://www.w3.org/2000/svg" viewBox="0 0 362.11 42.54"><defs><style>.cls-1{fill:#fff;}</style></defs><path class="cls-1" d="M0,30.18C.54,37.8,5.76,42.42,14.46,42.42c9.36,0,14-5.16,14-12,0-5.76-2.52-9.72-12.78-12.84-6.48-1.92-8.64-3.36-8.64-7.08s2.34-5.88,7-5.88c5,0,7.2,2.64,7.8,6.66h5.7C27.12,5.28,23.28.06,14.16.06c-7.74,0-12.9,4.2-12.9,11C1.26,17,4.56,20,13.38,22.62c7,2.16,9.18,4,9.18,8.46,0,4.26-2.94,6.72-7.86,6.72s-8.22-2.58-9-7.62ZM35.82,41.94h5.7V27.12L47,21.42l13.2,20.52h6.9L50.94,17.58,66.18.6h-6.9c-5.22,6.06-13.2,15.12-17.76,20.46V.6h-5.7V41.94ZM71.64.6V41.94H77.4V.6Zm31.62,41.34L117.36.6h-5.94l-6.6,20.1C103,26.4,100.8,33,100,36.42h-.12c-.9-3.84-2.88-10.08-4.68-15.78L88.86.6H82.68L96.36,41.94Zm19.32,0h14.28c8.28,0,14.1-4.38,14.1-12.3a10.24,10.24,0,0,0-7.08-10.2c2.46-.84,5.76-3.18,5.76-8.58,0-6.3-4.56-10.26-12.3-10.26H122.58V41.94Zm5.7-24.48V5.1h8.22c5,0,7.44,2.46,7.44,6.24,0,4-2.22,6.12-7.86,6.12Zm0,4.62h7.62c6.18,0,9.18,2.82,9.18,7.62,0,5.34-3.72,7.74-8.64,7.74h-8.16V22.08ZM174.36,0c-12.24,0-17.88,10.32-17.88,21,0,12.3,5.7,21.54,17.4,21.54,12.24,0,17.82-9.66,17.82-21.54S186,0,174.36,0Zm-.24,4.8c8.22,0,11.7,7.14,11.7,16.26,0,9.48-3.42,16.68-11.64,16.68-7.92,0-11.7-7.38-11.7-16.8C162.48,12,166,4.8,174.12,4.8Z"/><path class="cls-1" d="M198.9,41.94h24.66l.72-4.86H204.66V.6H198.9V41.94Zm53.16-12.06,4,12.06h6.12L248.22.6H240.9c-2.76,8.28-10.86,34-13.32,41.34h5.76l3.78-12.06ZM238.38,25c2.76-8.52,4.86-14.94,5.94-19.74h.12c.84,3.42,2.94,9.54,6.3,19.74Z"/><path class="cls-1" d="M296.14,19.5h-16v5h10.32v.24c0,7.2-1.74,13-10.14,13-7.92,0-11.22-7.56-11.22-16.26,0-9.24,3.48-16.68,11.76-16.68,6,0,8.58,3.12,9.72,7.26h5.7C295.06,4.86,290.08,0,281.08,0c-11.64,0-18,9.48-18,21.48s5.34,21.06,16.14,21.06c5.76,0,9.84-1.74,12-6.36a40.46,40.46,0,0,0,.54,5.76h4.38V19.5Zm30.72-1.68H308.38V5.46h19.38V.6h-25V41.94H328l.72-4.86H308.38V22.74h18.48V17.82Z"/><polygon class="cls-1" points="344.35 41.94 350.11 41.94 350.11 5.46 362.11 5.46 362.11 0.6 332.41 0.6 332.41 5.46 344.35 5.46 344.35 41.94 344.35 41.94"/></svg>